<svg xmlns="http://www.w3.org/2000/svg" viewBox="0 0 1200 800" width="1200" height="800" role="img">
<defs><linearGradient id="sky2056469703" x1="0" y1="0" x2="0" y2="1">
<stop offset="0" stop-color="#CFE6F5"/><stop offset=".62" stop-color="#EAF4FA"/><stop offset="1" stop-color="#FDF6EC"/>
</linearGradient><filter id="gr2056469703" x="0" y="0" width="100%" height="100%">
<feTurbulence type="fractalNoise" baseFrequency="0.9" numOctaves="3" stitchTiles="stitch"/>
<feColorMatrix type="saturate" values="0"/>
</filter>
    <radialGradient id="vig2056469703" cx=".5" cy=".45" r=".8">
      <stop offset=".5" stop-color="#000" stop-opacity="0"/><stop offset="1" stop-color="#1B2733" stop-opacity=".25"/></radialGradient></defs>

    <rect width="1200" height="800" fill="url(#sky2056469703)"/>
    <g>
    <polygon points="-60,390 45.77319865114987,232.01093916082755 151.54639730229974,390" fill="#8FA6BE" opacity=".55"/><polygon points="83.85155016556382,390 219.92876247037202,269.44283704971895 356.0059747751802,390" fill="#9FB4C9" opacity=".55"/><polygon points="268.916558900103,390 354.36541916541756,207.6083820988424 439.81427943073214,390" fill="#8FA6BE" opacity=".55"/><polygon points="385.1270088609308,390 551.914191079326,313.55962126282975 718.7013732977211,390" fill="#9FB4C9" opacity=".55"/><polygon points="611.9575766779483,390 697.2013899523765,309.0586153627373 782.4452032268048,390" fill="#8FA6BE" opacity=".55"/><polygon points="727.8891627311707,390 818.9256194474176,238.35635067662224 909.9620761636645,390" fill="#9FB4C9" opacity=".55"/><polygon points="851.6987438652665,390 999.5346784930676,201.75457899691537 1147.3706131208687,390" fill="#8FA6BE" opacity=".55"/><polygon points="1052.7556149590762,390 1144.7497653471307,256.0138185764663 1236.7439157351853,390" fill="#9FB4C9" opacity=".55"/><polygon points="1177.8676594868305,390 1336.9100658763202,222.54379526013508 1495.95247226581,390" fill="#8FA6BE" opacity=".55"/>
    <polygon points="11.773198651149869,278.01093916082755 45.77319865114987,232.01093916082755 79.77319865114987,278.01093916082755 59.77319865114987,268.01093916082755 39.77319865114987,284.01093916082755 25.77319865114987,266.01093916082755" fill="#F7FAFC" opacity=".85"/><polygon points="320.36541916541756,253.6083820988424 354.36541916541756,207.6083820988424 388.36541916541756,253.6083820988424 368.36541916541756,243.6083820988424 348.36541916541756,259.6083820988424 334.36541916541756,241.6083820988424" fill="#F7FAFC" opacity=".85"/><polygon points="663.2013899523765,355.0586153627373 697.2013899523765,309.0586153627373 731.2013899523765,355.0586153627373 711.2013899523765,345.0586153627373 691.2013899523765,361.0586153627373 677.2013899523765,343.0586153627373" fill="#F7FAFC" opacity=".85"/><polygon points="965.5346784930676,247.75457899691537 999.5346784930676,201.75457899691537 1033.5346784930675,247.75457899691537 1013.5346784930676,237.75457899691537 993.5346784930676,253.75457899691537 979.5346784930676,235.75457899691537" fill="#F7FAFC" opacity=".85"/><polygon points="1302.9100658763202,268.5437952601351 1336.9100658763202,222.54379526013508 1370.9100658763202,268.5437952601351 1350.9100658763202,258.5437952601351 1330.9100658763202,274.5437952601351 1316.9100658763202,256.5437952601351" fill="#F7FAFC" opacity=".85"/>
  </g>
    <!-- buildings receding along the lane -->
    <rect x="0" y="130" width="150" height="380" fill="#9D5540" opacity="1"/>
              <rect x="30" y="170" width="84" height="60" fill="#8E4A34" rx="3"/><rect x="35" y="175" width="32" height="20" fill="#3C5A73"/><path d="M35 195 L67 175 L67 189 L49 195 Z" fill="#FFFFFF" opacity=".28"/><rect x="35" y="205" width="32" height="20" fill="#3C5A73"/><path d="M35 225 L67 205 L67 219 L49 225 Z" fill="#FFFFFF" opacity=".28"/><rect x="77" y="175" width="32" height="20" fill="#3C5A73"/><path d="M77 195 L109 175 L109 189 L91 195 Z" fill="#FFFFFF" opacity=".28"/><rect x="77" y="205" width="32" height="20" fill="#3C5A73"/><path d="M77 225 L109 205 L109 219 L91 225 Z" fill="#FFFFFF" opacity=".28"/><rect x="150" y="176" width="150" height="334" fill="#B5654A" opacity="0.88"/>
              <rect x="180" y="216" width="84" height="60" fill="#8E4A34" rx="3"/><rect x="185" y="221" width="32" height="20" fill="#3C5A73"/><path d="M185 241 L217 221 L217 235 L199 241 Z" fill="#FFFFFF" opacity=".28"/><rect x="185" y="251" width="32" height="20" fill="#3C5A73"/><path d="M185 271 L217 251 L217 265 L199 271 Z" fill="#FFFFFF" opacity=".28"/><rect x="227" y="221" width="32" height="20" fill="#3C5A73"/><path d="M227 241 L259 221 L259 235 L241 241 Z" fill="#FFFFFF" opacity=".28"/><rect x="227" y="251" width="32" height="20" fill="#3C5A73"/><path d="M227 271 L259 251 L259 265 L241 271 Z" fill="#FFFFFF" opacity=".28"/><rect x="300" y="222" width="150" height="288" fill="#9D5540" opacity="0.76"/>
              <rect x="330" y="262" width="84" height="60" fill="#8E4A34" rx="3"/><rect x="335" y="267" width="32" height="20" fill="#3C5A73"/><path d="M335 287 L367 267 L367 281 L349 287 Z" fill="#FFFFFF" opacity=".28"/><rect x="335" y="297" width="32" height="20" fill="#3C5A73"/><path d="M335 317 L367 297 L367 311 L349 317 Z" fill="#FFFFFF" opacity=".28"/><rect x="377" y="267" width="32" height="20" fill="#3C5A73"/><path d="M377 287 L409 267 L409 281 L391 287 Z" fill="#FFFFFF" opacity=".28"/><rect x="377" y="297" width="32" height="20" fill="#3C5A73"/><path d="M377 317 L409 297 L409 311 L391 317 Z" fill="#FFFFFF" opacity=".28"/><rect x="450" y="268" width="150" height="242" fill="#B5654A" opacity="0.64"/>
              <rect x="480" y="308" width="84" height="60" fill="#8E4A34" rx="3"/><rect x="485" y="313" width="32" height="20" fill="#3C5A73"/><path d="M485 333 L517 313 L517 327 L499 333 Z" fill="#FFFFFF" opacity=".28"/><rect x="485" y="343" width="32" height="20" fill="#3C5A73"/><path d="M485 363 L517 343 L517 357 L499 363 Z" fill="#FFFFFF" opacity=".28"/><rect x="527" y="313" width="32" height="20" fill="#3C5A73"/><path d="M527 333 L559 313 L559 327 L541 333 Z" fill="#FFFFFF" opacity=".28"/><rect x="527" y="343" width="32" height="20" fill="#3C5A73"/><path d="M527 363 L559 343 L559 357 L541 363 Z" fill="#FFFFFF" opacity=".28"/>
    <rect x="1050" y="130" width="150" height="380" fill="#B5654A" opacity="1"/>
              <rect x="1086" y="170" width="84" height="60" fill="#8E4A34" rx="3"/><rect x="1091" y="175" width="32" height="20" fill="#3C5A73"/><path d="M1091 195 L1123 175 L1123 189 L1105 195 Z" fill="#FFFFFF" opacity=".28"/><rect x="1091" y="205" width="32" height="20" fill="#3C5A73"/><path d="M1091 225 L1123 205 L1123 219 L1105 225 Z" fill="#FFFFFF" opacity=".28"/><rect x="1133" y="175" width="32" height="20" fill="#3C5A73"/><path d="M1133 195 L1165 175 L1165 189 L1147 195 Z" fill="#FFFFFF" opacity=".28"/><rect x="1133" y="205" width="32" height="20" fill="#3C5A73"/><path d="M1133 225 L1165 205 L1165 219 L1147 225 Z" fill="#FFFFFF" opacity=".28"/><rect x="900" y="176" width="150" height="334" fill="#9D5540" opacity="0.88"/>
              <rect x="936" y="216" width="84" height="60" fill="#8E4A34" rx="3"/><rect x="941" y="221" width="32" height="20" fill="#3C5A73"/><path d="M941 241 L973 221 L973 235 L955 241 Z" fill="#FFFFFF" opacity=".28"/><rect x="941" y="251" width="32" height="20" fill="#3C5A73"/><path d="M941 271 L973 251 L973 265 L955 271 Z" fill="#FFFFFF" opacity=".28"/><rect x="983" y="221" width="32" height="20" fill="#3C5A73"/><path d="M983 241 L1015 221 L1015 235 L997 241 Z" fill="#FFFFFF" opacity=".28"/><rect x="983" y="251" width="32" height="20" fill="#3C5A73"/><path d="M983 271 L1015 251 L1015 265 L997 271 Z" fill="#FFFFFF" opacity=".28"/><rect x="750" y="222" width="150" height="288" fill="#B5654A" opacity="0.76"/>
              <rect x="786" y="262" width="84" height="60" fill="#8E4A34" rx="3"/><rect x="791" y="267" width="32" height="20" fill="#3C5A73"/><path d="M791 287 L823 267 L823 281 L805 287 Z" fill="#FFFFFF" opacity=".28"/><rect x="791" y="297" width="32" height="20" fill="#3C5A73"/><path d="M791 317 L823 297 L823 311 L805 317 Z" fill="#FFFFFF" opacity=".28"/><rect x="833" y="267" width="32" height="20" fill="#3C5A73"/><path d="M833 287 L865 267 L865 281 L847 287 Z" fill="#FFFFFF" opacity=".28"/><rect x="833" y="297" width="32" height="20" fill="#3C5A73"/><path d="M833 317 L865 297 L865 311 L847 317 Z" fill="#FFFFFF" opacity=".28"/><rect x="600" y="268" width="150" height="242" fill="#9D5540" opacity="0.64"/>
              <rect x="636" y="308" width="84" height="60" fill="#8E4A34" rx="3"/><rect x="641" y="313" width="32" height="20" fill="#3C5A73"/><path d="M641 333 L673 313 L673 327 L655 333 Z" fill="#FFFFFF" opacity=".28"/><rect x="641" y="343" width="32" height="20" fill="#3C5A73"/><path d="M641 363 L673 343 L673 357 L655 363 Z" fill="#FFFFFF" opacity=".28"/><rect x="683" y="313" width="32" height="20" fill="#3C5A73"/><path d="M683 333 L715 313 L715 327 L697 333 Z" fill="#FFFFFF" opacity=".28"/><rect x="683" y="343" width="32" height="20" fill="#3C5A73"/><path d="M683 363 L715 343 L715 357 L697 363 Z" fill="#FFFFFF" opacity=".28"/>
    <!-- blacktop -->
    <path d="M0 800 L470 470 L730 470 L1200 800 Z" fill="#4A4E52"/>
    <path d="M0 800 L470 470 L500 470 L120 800 Z" fill="#5A5E62" opacity=".5"/>
    <rect x="587" y="760" width="26" height="40" fill="#E8E2D2" opacity=".75"/><rect x="588.6666666666666" y="710" width="22.666666666666668" height="35" fill="#E8E2D2" opacity=".75"/><rect x="590.3333333333334" y="660" width="19.333333333333336" height="30" fill="#E8E2D2" opacity=".75"/><rect x="592" y="610" width="16" height="25" fill="#E8E2D2" opacity=".75"/><rect x="593.6666666666666" y="560" width="12.666666666666668" height="20" fill="#E8E2D2" opacity=".75"/><rect x="595.3333333333334" y="510" width="9.333333333333332" height="15" fill="#E8E2D2" opacity=".75"/>
    <!-- footpath -->
    <path d="M0 800 L470 470 L470 454 L0 740 Z" fill="#9A9186"/>
    <path d="M1200 800 L730 470 L730 454 L1200 740 Z" fill="#9A9186"/>
    <!-- the gate you actually arrive at -->
    <rect x="120" y="370" width="230" height="190" fill="#5C6B73"/>
    <g><rect x="136" y="376" width="3" height="180" fill="#8FA0A9" opacity=".85"/><rect x="152" y="376" width="3" height="180" fill="#8FA0A9" opacity=".85"/><rect x="168" y="376" width="3" height="180" fill="#8FA0A9" opacity=".85"/><rect x="184" y="376" width="3" height="180" fill="#8FA0A9" opacity=".85"/><rect x="200" y="376" width="3" height="180" fill="#8FA0A9" opacity=".85"/><rect x="216" y="376" width="3" height="180" fill="#8FA0A9" opacity=".85"/><rect x="232" y="376" width="3" height="180" fill="#8FA0A9" opacity=".85"/><rect x="248" y="376" width="3" height="180" fill="#8FA0A9" opacity=".85"/><rect x="264" y="376" width="3" height="180" fill="#8FA0A9" opacity=".85"/><rect x="280" y="376" width="3" height="180" fill="#8FA0A9" opacity=".85"/><rect x="296" y="376" width="3" height="180" fill="#8FA0A9" opacity=".85"/><rect x="312" y="376" width="3" height="180" fill="#8FA0A9" opacity=".85"/><rect x="328" y="376" width="3" height="180" fill="#8FA0A9" opacity=".85"/><rect x="126" y="371" width="218" height="6" fill="#8FA0A9" rx="3"/><rect x="126" y="552" width="218" height="5" fill="#8FA0A9" rx="2"/></g>
    <rect x="112" y="350" width="246" height="26" rx="4" fill="#8E4A34"/>
    <rect x="186" y="356" width="98" height="14" rx="3" fill="#C62244"/>
    <rect x="96" y="334" width="32" height="230" fill="#8E4A34"/>
    <rect x="344" y="334" width="32" height="230" fill="#8E4A34"/>
    <g><rect x="894.6" y="373" width="10.8" height="117" fill="#6B5240" rx="3"/><circle cx="878.1196943814866" cy="366.96724460087717" r="43.00772616863251" fill="#3E7A4E" opacity=".95"/><circle cx="925.0090393458959" cy="326.1433483324945" r="49.48696830854751" fill="#4C8C58" opacity=".95"/><circle cx="882.5115309627727" cy="375.15794224478304" r="46.58411637833342" fill="#356B45" opacity=".95"/><circle cx="870.0183553837705" cy="368.1185098141432" r="33.34576489417814" fill="#3E7A4E" opacity=".95"/><circle cx="878.3116353289224" cy="343.4067729841918" r="30.663499224744736" fill="#4C8C58" opacity=".95"/><circle cx="872.5536650705617" cy="380.2461488880217" r="41.656194406421854" fill="#356B45" opacity=".95"/><circle cx="904.9096381254494" cy="361.5357604492456" r="48.58391190664843" fill="#3E7A4E" opacity=".95"/></g>
    <!-- utility pole, the honest Kathmandu detail -->
    <rect x="1010" y="230" width="12" height="330" fill="#7A6A58"/>
    <rect x="964" y="240" width="106" height="8" fill="#7A6A58"/>
    <path d="M0 254 Q600 310 1016 244" stroke="#3A3A3A" stroke-width="3" fill="none"/>
    <path d="M0 270 Q600 334 1016 258" stroke="#3A3A3A" stroke-width="2" fill="none"/>
    <rect width="1200" height="800" fill="url(#vig2056469703)"/>
    <rect width="1200" height="800" filter="url(#gr2056469703)" opacity=".05" style="mix-blend-mode:multiply"/>
  
</svg>